<svg version="1.1" id="Layer_1" xmlns="http://www.w3.org/2000/svg" xmlns:xlink="http://www.w3.org/1999/xlink" x="0px" y="0px"
	 width="100%" viewBox="0 0 752 760" enable-background="new 0 0 752 760" xml:space="preserve">
<path fill="#000000" opacity="1.000000" stroke="none" 
	d="
M753.000000,281.000000 
	C753.000000,441.333344 753.000000,601.166687 753.000000,761.000000 
	C502.333344,761.000000 251.666672,761.000000 1.000000,761.000000 
	C1.000000,507.666656 1.000000,254.333328 1.000000,1.000000 
	C251.666672,1.000000 502.333344,1.000000 753.000000,1.000000 
	C753.000000,94.166664 753.000000,187.333328 753.000000,281.000000 
M601.500000,40.996403 
	C414.739471,40.996403 227.978973,40.996403 41.282509,40.996403 
	C41.282509,267.972839 41.282509,494.377136 41.282509,720.717346 
	C264.973053,720.717346 488.377350,720.717346 711.717285,720.717346 
	C711.717285,494.026764 711.717285,267.622498 711.717285,40.996403 
	C675.120972,40.996403 638.810486,40.996403 601.500000,40.996403 
z"/>
<path fill="#FDFDFE" opacity="1.000000" stroke="none" 
	d="
M602.000000,40.996403 
	C638.810486,40.996403 675.120972,40.996403 711.717285,40.996403 
	C711.717285,267.622498 711.717285,494.026764 711.717285,720.717346 
	C488.377350,720.717346 264.973053,720.717346 41.282509,720.717346 
	C41.282509,494.377136 41.282509,267.972839 41.282509,40.996403 
	C227.978973,40.996403 414.739471,40.996403 602.000000,40.996403 
M518.187378,598.500000 
	C518.187317,532.511353 518.187866,466.522766 518.186584,400.534149 
	C518.186462,393.392090 518.181824,393.380798 511.076813,393.380219 
	C464.918091,393.376404 418.759094,393.306061 372.601044,393.480194 
	C367.560699,393.499237 366.076752,392.072296 366.106842,386.990204 
	C366.315155,351.830811 366.234741,316.669617 366.206177,281.509003 
	C366.196899,270.055145 366.301147,258.854858 370.202332,247.615143 
	C373.614105,237.785461 377.941132,229.328949 386.291107,223.077774 
	C388.287598,221.583145 390.434998,220.125381 391.968964,218.214066 
	C394.675751,214.841492 398.008636,214.170258 402.098022,214.184494 
	C435.591827,214.301086 469.086548,214.184418 502.580170,214.328659 
	C506.926453,214.347366 508.331818,213.045639 508.314789,208.628281 
	C508.167725,170.468765 508.159363,132.308090 508.325165,94.148720 
	C508.345673,89.422234 506.717407,88.205643 502.224243,88.222404 
	C464.397949,88.363541 426.570892,88.297600 388.744080,88.307335 
	C382.542999,88.308929 382.319427,88.541893 382.317780,94.819443 
	C382.308990,128.480316 382.336884,162.141235 382.265686,195.801971 
	C382.260162,198.414215 381.936035,201.133377 381.158417,203.614288 
	C379.468842,209.004349 377.565826,214.344803 375.414520,219.567307 
	C373.713654,223.696396 372.152130,228.136765 369.406769,231.531570 
	C362.642426,239.896042 355.228912,245.893021 342.755066,245.819214 
	C251.607269,245.279785 160.454819,245.528046 69.303841,245.529648 
	C62.044651,245.529770 62.034035,245.536591 62.033852,252.554077 
	C62.031387,348.037628 62.031075,443.521210 62.034203,539.004761 
	C62.034420,545.686768 62.048943,545.699280 68.631042,545.699829 
	C115.123039,545.703674 161.615326,545.774963 208.106613,545.593506 
	C212.968918,545.574524 214.175522,546.978699 214.157089,551.733704 
	C213.977524,598.058411 214.040024,644.383972 214.037979,690.709351 
	C214.037643,697.995056 214.047852,698.009399 221.519638,697.999939 
	C318.168182,697.877380 414.816742,697.751221 511.465302,697.622925 
	C518.158997,697.614014 518.181274,697.600830 518.183105,690.984253 
	C518.191406,660.489502 518.187256,629.994751 518.187378,598.500000 
M520.303467,340.500000 
	C520.317444,319.500793 520.461182,298.500580 520.293823,277.502808 
	C520.201965,265.980927 521.163696,254.979767 525.188782,243.796967 
	C529.361938,232.202576 534.352722,222.028046 545.042603,215.547821 
	C547.983643,213.764984 551.591248,212.079544 554.902405,212.061447 
	C597.399597,211.828979 639.898804,211.841156 682.396667,211.998398 
	C687.227478,212.016281 689.138306,210.923767 689.121704,205.655243 
	C688.974792,158.990845 689.091370,112.325630 689.116150,65.660652 
	C689.119385,59.546051 688.881226,59.318718 682.530457,59.317379 
	C636.198792,59.307613 589.867126,59.307365 543.535461,59.318146 
	C537.010437,59.319664 536.846313,59.494938 536.840210,66.061523 
	C536.802856,106.560059 536.568542,147.060181 536.875000,187.556168 
	C536.967896,199.841492 531.895935,210.459915 528.029724,221.496597 
	C526.937988,224.613190 524.187988,227.314407 521.743835,229.749847 
	C518.688599,232.794189 514.747314,235.005234 511.942993,238.231812 
	C508.087708,242.667572 503.476013,243.172714 498.104034,243.147720 
	C465.605896,242.996475 433.106689,243.086105 400.607880,243.051575 
	C397.376892,243.048141 394.702148,243.015503 394.697876,247.577591 
	C394.661560,286.238892 394.501770,324.900116 394.329132,363.561157 
	C394.312378,367.314667 395.751221,368.890350 399.682800,368.888885 
	C438.347961,368.874237 477.013306,368.957764 515.678101,369.123383 
	C519.149292,369.138245 520.419434,367.968872 520.344666,364.498047 
	C520.179565,356.835297 520.299927,349.166382 520.303467,340.500000 
M668.151855,323.500000 
	C668.151733,298.518433 668.075684,273.536438 668.226440,248.555786 
	C668.251526,244.403778 666.885132,243.050613 662.758301,243.062653 
	C624.453552,243.174545 586.148193,243.171967 547.843445,243.063934 
	C543.753174,243.052399 542.292419,244.375931 542.304749,248.540939 
	C542.418518,287.012207 542.416992,325.484070 542.304321,363.955383 
	C542.292603,367.957428 543.768860,369.113007 547.582825,369.103882 
	C586.054260,369.011688 624.526062,369.006378 662.997375,369.109680 
	C666.855774,369.120026 668.284851,367.959015 668.225403,363.969788 
	C668.029053,350.815765 668.151794,337.656952 668.151855,323.500000 
M61.812195,670.500488 
	C61.866459,677.832520 62.195820,685.176514 61.877266,692.492310 
	C61.668537,697.285950 63.557167,698.397705 67.998070,698.381714 
	C105.658424,698.246094 143.319672,698.246460 180.980042,698.379578 
	C185.456406,698.395386 187.094330,697.175232 187.066315,692.436890 
	C186.843735,654.777283 186.812927,617.116211 186.889862,579.455872 
	C186.898743,575.114990 185.522659,573.654480 181.136932,573.680115 
	C142.977051,573.903564 104.815971,574.009338 66.655571,573.947937 
	C61.987568,573.940430 60.662449,575.463745 60.738022,580.036377 
	C61.230858,609.855530 61.474682,639.678772 61.812195,670.500488 
z"/>
<path fill="#1A2E4F" opacity="1.000000" stroke="none" 
	d="
M518.187439,599.000000 
	C518.187256,629.994751 518.191406,660.489502 518.183105,690.984253 
	C518.181274,697.600830 518.158997,697.614014 511.465302,697.622925 
	C414.816742,697.751221 318.168182,697.877380 221.519638,697.999939 
	C214.047852,698.009399 214.037643,697.995056 214.037979,690.709351 
	C214.040024,644.383972 213.977524,598.058411 214.157089,551.733704 
	C214.175522,546.978699 212.968918,545.574524 208.106613,545.593506 
	C161.615326,545.774963 115.123039,545.703674 68.631042,545.699829 
	C62.048943,545.699280 62.034420,545.686768 62.034203,539.004761 
	C62.031075,443.521210 62.031387,348.037628 62.033852,252.554077 
	C62.034035,245.536591 62.044651,245.529770 69.303841,245.529648 
	C160.454819,245.528046 251.607269,245.279785 342.755066,245.819214 
	C355.228912,245.893021 362.642426,239.896042 369.406769,231.531570 
	C372.152130,228.136765 373.713654,223.696396 375.414520,219.567307 
	C377.565826,214.344803 379.468842,209.004349 381.158417,203.614288 
	C381.936035,201.133377 382.260162,198.414215 382.265686,195.801971 
	C382.336884,162.141235 382.308990,128.480316 382.317780,94.819443 
	C382.319427,88.541893 382.542999,88.308929 388.744080,88.307335 
	C426.570892,88.297600 464.397949,88.363541 502.224243,88.222404 
	C506.717407,88.205643 508.345673,89.422234 508.325165,94.148720 
	C508.159363,132.308090 508.167725,170.468765 508.314789,208.628281 
	C508.331818,213.045639 506.926453,214.347366 502.580170,214.328659 
	C469.086548,214.184418 435.591827,214.301086 402.098022,214.184494 
	C398.008636,214.170258 394.675751,214.841492 391.968964,218.214066 
	C390.434998,220.125381 388.287598,221.583145 386.291107,223.077774 
	C377.941132,229.328949 373.614105,237.785461 370.202332,247.615143 
	C366.301147,258.854858 366.196899,270.055145 366.206177,281.509003 
	C366.234741,316.669617 366.315155,351.830811 366.106842,386.990204 
	C366.076752,392.072296 367.560699,393.499237 372.601044,393.480194 
	C418.759094,393.306061 464.918091,393.376404 511.076813,393.380219 
	C518.181824,393.380798 518.186462,393.392090 518.186584,400.534149 
	C518.187866,466.522766 518.187317,532.511353 518.187439,599.000000 
M211.998169,486.500000 
	C211.998184,458.675171 211.996658,430.850311 211.999222,403.025482 
	C211.999924,395.423492 212.409973,395.000580 219.825485,395.000122 
	C265.978027,394.997406 312.130829,394.931213 358.282745,395.102570 
	C362.919067,395.119812 364.113586,393.813110 364.095184,389.245880 
	C363.925323,347.092773 363.989563,304.938721 364.013916,262.784943 
	C364.014954,260.974487 363.986908,259.073029 364.496124,257.370636 
	C366.082214,252.068253 367.997162,246.864563 369.604431,241.567932 
	C369.985016,240.313828 369.660828,238.845886 369.660828,236.638535 
	C366.958069,238.612076 364.820404,239.860962 363.064209,241.514923 
	C358.150116,246.142944 352.738373,248.175064 345.690979,248.157318 
	C253.719711,247.925888 161.747604,248.035400 69.775909,247.908752 
	C65.242455,247.902496 63.896877,249.033020 63.903656,253.699417 
	C64.041214,348.336914 64.027771,442.974731 63.932968,537.612366 
	C63.929020,541.554138 64.710228,543.108215 69.086983,543.093445 
	C115.072395,542.938110 161.058670,542.948792 207.044220,543.083069 
	C211.052658,543.094727 212.125412,541.889282 212.080597,537.983582 
	C211.887512,521.157654 211.998138,504.328186 211.998169,486.500000 
M225.539398,397.896667 
	C224.372818,397.896698 223.206238,397.896088 222.039658,397.896820 
	C214.245026,397.901672 214.242142,397.901764 214.242004,405.925507 
	C214.241241,450.584564 214.288559,495.243774 214.163727,539.902466 
	C214.152374,543.966797 215.204300,545.320251 219.452667,545.321716 
	C266.110168,545.337219 312.767609,545.554260 359.425049,545.707275 
	C365.765747,545.728088 365.880035,545.619873 365.881256,539.289917 
	C365.889893,494.297577 365.813232,449.304932 365.987152,404.313263 
	C366.006592,399.291962 364.600525,397.768799 359.506531,397.790009 
	C315.181549,397.974854 270.855408,397.896576 225.539398,397.896667 
M440.500000,91.001221 
	C423.842285,91.001228 407.182343,91.148483 390.528320,90.901329 
	C386.173981,90.836716 384.870544,91.960167 384.899078,96.442696 
	C385.097229,127.591278 384.885437,158.742493 385.088715,189.891006 
	C385.138153,197.461121 384.246307,204.449478 380.672363,211.337280 
	C378.481079,215.560349 378.086670,220.715775 376.885345,225.452515 
	C377.404572,225.744339 377.923798,226.036163 378.443024,226.328003 
	C381.798340,223.548721 385.634430,221.174179 388.395172,217.894424 
	C392.438690,213.090698 397.067749,211.805115 403.203278,211.860489 
	C435.683075,212.153687 468.167206,211.935669 500.649048,212.077896 
	C504.645782,212.095398 506.107788,211.196625 506.088501,206.878693 
	C505.923401,169.899414 505.932251,132.918823 506.081787,95.939407 
	C506.098145,91.905251 504.844543,90.887337 500.967163,90.921227 
	C481.146057,91.094521 461.322632,91.001259 440.500000,91.001221 
z"/>
<path fill="#137AD7" opacity="1.000000" stroke="none" 
	d="
M520.303589,341.000000 
	C520.299927,349.166382 520.179565,356.835297 520.344666,364.498047 
	C520.419434,367.968872 519.149292,369.138245 515.678101,369.123383 
	C477.013306,368.957764 438.347961,368.874237 399.682800,368.888885 
	C395.751221,368.890350 394.312378,367.314667 394.329132,363.561157 
	C394.501770,324.900116 394.661560,286.238892 394.697876,247.577591 
	C394.702148,243.015503 397.376892,243.048141 400.607880,243.051575 
	C433.106689,243.086105 465.605896,242.996475 498.104034,243.147720 
	C503.476013,243.172714 508.087708,242.667572 511.942993,238.231812 
	C514.747314,235.005234 518.688599,232.794189 521.743835,229.749847 
	C524.187988,227.314407 526.937988,224.613190 528.029724,221.496597 
	C531.895935,210.459915 536.967896,199.841492 536.875000,187.556168 
	C536.568542,147.060181 536.802856,106.560059 536.840210,66.061523 
	C536.846313,59.494938 537.010437,59.319664 543.535461,59.318146 
	C589.867126,59.307365 636.198792,59.307613 682.530457,59.317379 
	C688.881226,59.318718 689.119385,59.546051 689.116150,65.660652 
	C689.091370,112.325630 688.974792,158.990845 689.121704,205.655243 
	C689.138306,210.923767 687.227478,212.016281 682.396667,211.998398 
	C639.898804,211.841156 597.399597,211.828979 554.902405,212.061447 
	C551.591248,212.079544 547.983643,213.764984 545.042603,215.547821 
	C534.352722,222.028046 529.361938,232.202576 525.188782,243.796967 
	C521.163696,254.979767 520.201965,265.980927 520.293823,277.502808 
	C520.461182,298.500580 520.317444,319.500793 520.303589,341.000000 
z"/>
<path fill="#1A2E4E" opacity="1.000000" stroke="none" 
	d="
M668.151855,324.000000 
	C668.151794,337.656952 668.029053,350.815765 668.225403,363.969788 
	C668.284851,367.959015 666.855774,369.120026 662.997375,369.109680 
	C624.526062,369.006378 586.054260,369.011688 547.582825,369.103882 
	C543.768860,369.113007 542.292603,367.957428 542.304321,363.955383 
	C542.416992,325.484070 542.418518,287.012207 542.304749,248.540939 
	C542.292419,244.375931 543.753174,243.052399 547.843445,243.063934 
	C586.148193,243.171967 624.453552,243.174545 662.758301,243.062653 
	C666.885132,243.050613 668.251526,244.403778 668.226440,248.555786 
	C668.075684,273.536438 668.151733,298.518433 668.151855,324.000000 
z"/>
<path fill="#137AD7" opacity="1.000000" stroke="none" 
	d="
M61.806068,670.000610 
	C61.474682,639.678772 61.230858,609.855530 60.738022,580.036377 
	C60.662449,575.463745 61.987568,573.940430 66.655571,573.947937 
	C104.815971,574.009338 142.977051,573.903564 181.136932,573.680115 
	C185.522659,573.654480 186.898743,575.114990 186.889862,579.455872 
	C186.812927,617.116211 186.843735,654.777283 187.066315,692.436890 
	C187.094330,697.175232 185.456406,698.395386 180.980042,698.379578 
	C143.319672,698.246460 105.658424,698.246094 67.998070,698.381714 
	C63.557167,698.397705 61.668537,697.285950 61.877266,692.492310 
	C62.195820,685.176514 61.866459,677.832520 61.806068,670.000610 
z"/>
<path fill="#162A4B" opacity="1.000000" stroke="none" 
	d="
M211.998169,487.000000 
	C211.998138,504.328186 211.887512,521.157654 212.080597,537.983582 
	C212.125412,541.889282 211.052658,543.094727 207.044220,543.083069 
	C161.058670,542.948792 115.072395,542.938110 69.086983,543.093445 
	C64.710228,543.108215 63.929020,541.554138 63.932968,537.612366 
	C64.027771,442.974731 64.041214,348.336914 63.903656,253.699417 
	C63.896877,249.033020 65.242455,247.902496 69.775909,247.908752 
	C161.747604,248.035400 253.719711,247.925888 345.690979,248.157318 
	C352.738373,248.175064 358.150116,246.142944 363.064209,241.514923 
	C364.820404,239.860962 366.958069,238.612076 369.660828,236.638535 
	C369.660828,238.845886 369.985016,240.313828 369.604431,241.567932 
	C367.997162,246.864563 366.082214,252.068253 364.496124,257.370636 
	C363.986908,259.073029 364.014954,260.974487 364.013916,262.784943 
	C363.989563,304.938721 363.925323,347.092773 364.095184,389.245880 
	C364.113586,393.813110 362.919067,395.119812 358.282745,395.102570 
	C312.130829,394.931213 265.978027,394.997406 219.825485,395.000122 
	C212.409973,395.000580 211.999924,395.423492 211.999222,403.025482 
	C211.996658,430.850311 211.998184,458.675171 211.998169,487.000000 
z"/>
<path fill="#FCFCFD" opacity="1.000000" stroke="none" 
	d="
M226.034515,397.896606 
	C270.855408,397.896576 315.181549,397.974854 359.506531,397.790009 
	C364.600525,397.768799 366.006592,399.291962 365.987152,404.313263 
	C365.813232,449.304932 365.889893,494.297577 365.881256,539.289917 
	C365.880035,545.619873 365.765747,545.728088 359.425049,545.707275 
	C312.767609,545.554260 266.110168,545.337219 219.452667,545.321716 
	C215.204300,545.320251 214.152374,543.966797 214.163727,539.902466 
	C214.288559,495.243774 214.241241,450.584564 214.242004,405.925507 
	C214.242142,397.901764 214.245026,397.901672 222.039658,397.896820 
	C223.206238,397.896088 224.372818,397.896698 226.034515,397.896606 
z"/>
<path fill="#162A4B" opacity="1.000000" stroke="none" 
	d="
M441.000000,91.001221 
	C461.322632,91.001259 481.146057,91.094521 500.967163,90.921227 
	C504.844543,90.887337 506.098145,91.905251 506.081787,95.939407 
	C505.932251,132.918823 505.923401,169.899414 506.088501,206.878693 
	C506.107788,211.196625 504.645782,212.095398 500.649048,212.077896 
	C468.167206,211.935669 435.683075,212.153687 403.203278,211.860489 
	C397.067749,211.805115 392.438690,213.090698 388.395172,217.894424 
	C385.634430,221.174179 381.798340,223.548721 378.443024,226.328003 
	C377.923798,226.036163 377.404572,225.744339 376.885345,225.452515 
	C378.086670,220.715775 378.481079,215.560349 380.672363,211.337280 
	C384.246307,204.449478 385.138153,197.461121 385.088715,189.891006 
	C384.885437,158.742493 385.097229,127.591278 384.899078,96.442696 
	C384.870544,91.960167 386.173981,90.836716 390.528320,90.901329 
	C407.182343,91.148483 423.842285,91.001228 441.000000,91.001221 
z"/>
</svg>